<?xml version="1.0" encoding="utf-8"?>
<svg
	version="1.1"
	xmlns="http://www.w3.org/2000/svg"
	xmlns:xlink="http://www.w3.org/1999/xlink"
	x="0%" y="0%"
	width="100%" height="100%"
	viewBox="0 0 24.0 24.0"
	enable-background="new 0 0 24.0 24.0"
	xml:space="preserve">
	<path
		fill="#DD0000"
		stroke="#000000"
		fill-opacity="1.000"
		stroke-opacity="1.000"
		fill-rule="nonzero"
		stroke-width="0.0"
		stroke-linejoin="miter"
		stroke-linecap="square"
		d="M7.37,5.25L13.59,5.25L13.59,8.18L7.37,8.18z"/>
	<path
		fill="#FFFFFF"
		stroke="#000000"
		fill-opacity="0.000"
		stroke-opacity="1.000"
		fill-rule="nonzero"
		stroke-width="2.8799996"
		stroke-linejoin="miter"
		stroke-linecap="square"
		d="M6.52,6.61C9.21,6.61,11.40,8.79,11.40,11.48C11.40,14.18,9.21,16.36,6.52,16.36C3.83,16.36,1.65,14.18,1.65,11.48C1.65,8.79,3.83,6.61,6.52,6.61z"/>
	<path
		fill="#DD0000"
		stroke="#030303"
		fill-opacity="1.000"
		stroke-opacity="1.000"
		fill-rule="nonzero"
		stroke-width="0.0"
		stroke-linejoin="bevel"
		stroke-linecap="square"
		d="M6.89,10.90L13.59,10.90L13.59,13.48L6.89,13.48z"/>
	<path
		fill="#DD0000"
		stroke="#09FFFF"
		fill-opacity="1.000"
		stroke-opacity="1.000"
		fill-rule="nonzero"
		stroke-width="0.0"
		stroke-linejoin="bevel"
		stroke-linecap="square"
		d="M13.66,10.90L13.70,17.28L11.12,17.29L11.08,10.91z"/>
	<path
		fill="#000000"
		stroke="#09FFFF"
		fill-opacity="1.000"
		stroke-opacity="1.000"
		fill-rule="nonzero"
		stroke-width="0.0"
		stroke-linejoin="miter"
		stroke-linecap="square"
		d="M16.46,13.32L17.84,11.90L22.04,15.98L20.66,17.40z"/>
	<path
		fill="#000000"
		stroke="#09FFFF"
		fill-opacity="1.000"
		stroke-opacity="1.000"
		fill-rule="nonzero"
		stroke-width="0.0"
		stroke-linejoin="miter"
		stroke-linecap="square"
		d="M20.71,11.93L22.06,13.37L17.79,17.37L16.44,15.92z"/>
	<path
		fill="#000000"
		stroke="#09FFFF"
		fill-opacity="1.000"
		stroke-opacity="1.000"
		fill-rule="nonzero"
		stroke-width="0.0"
		stroke-linejoin="miter"
		stroke-linecap="square"
		d="M17.01,13.87L15.14,11.91L17.84,11.91"/>
	<path
		fill="#000000"
		stroke="#09FFFF"
		fill-opacity="1.000"
		stroke-opacity="1.000"
		fill-rule="nonzero"
		stroke-width="0.0"
		stroke-linejoin="miter"
		stroke-linecap="square"
		d="M16.66,15.73L17.83,17.39L14.95,17.37"/>
	<path
		fill="#000000"
		stroke="#09FFFF"
		fill-opacity="1.000"
		stroke-opacity="1.000"
		fill-rule="nonzero"
		stroke-width="0.0"
		stroke-linejoin="miter"
		stroke-linecap="square"
		d="M21.78,15.74L20.61,17.40L23.49,17.38"/>
	<path
		fill="#000000"
		stroke="#09FFFF"
		fill-opacity="1.000"
		stroke-opacity="1.000"
		fill-rule="nonzero"
		stroke-width="0.0"
		stroke-linejoin="miter"
		stroke-linecap="square"
		d="M21.86,13.60L20.71,11.94L23.59,11.96"/>
</svg>